<mxfile host="Electron" agent="Mozilla/5.0 (X11; Linux x86_64) AppleWebKit/537.36 (KHTML, like Gecko) draw.io/26.0.16 Chrome/132.0.6834.196 Electron/34.2.0 Safari/537.36" version="26.0.16">
  <diagram name="Page-1" id="CfeA5UuGD7TuuOps8YN1">
    <mxGraphModel dx="1041" dy="1107" grid="0" gridSize="10" guides="1" tooltips="1" connect="1" arrows="1" fold="1" page="0" pageScale="1" pageWidth="850" pageHeight="1100" math="0" shadow="0">
      <root>
        <mxCell id="0" />
        <mxCell id="1" parent="0" />
        <mxCell id="18WQXgXfnGOnwOxeG2_K-1" value="&lt;b&gt;file_ops&lt;/b&gt;&lt;div&gt;&amp;lt;&amp;lt;non-class&amp;gt;&amp;gt;&lt;/div&gt;" style="swimlane;fontStyle=0;childLayout=stackLayout;horizontal=1;startSize=32;fillColor=none;horizontalStack=0;resizeParent=1;resizeParentMax=0;resizeLast=0;collapsible=1;marginBottom=0;whiteSpace=wrap;html=1;" vertex="1" parent="1">
          <mxGeometry x="353" y="-155" width="313" height="262" as="geometry" />
        </mxCell>
        <mxCell id="18WQXgXfnGOnwOxeG2_K-2" value="+ hash_file(path: &amp;amp;str): Result&amp;lt;String, Err&amp;gt;&lt;div&gt;+ hash_buffer (buffer: &amp;amp;vec&amp;lt;u8&amp;gt;): String&lt;/div&gt;&lt;div&gt;+ hash_files_shallow (path: &amp;amp;str): Result&amp;lt;HashMap&amp;lt;String, String&amp;gt;, Err&amp;gt;&lt;/div&gt;&lt;div&gt;+ get_directory_children(path: &amp;amp;str) -&amp;gt; Result&amp;lt;(Vec&amp;lt;String, Vec&amp;lt;String&amp;gt;), Err&amp;gt;&lt;/div&gt;&lt;div&gt;+ get_block(file_path: String, block_num: u64): Result&amp;lt;Vec&amp;lt;u8&amp;gt;, Err&amp;gt;&lt;/div&gt;&lt;div&gt;+ generate_rdfs_file(input_path: &amp;amp;str): Result&amp;lt;String, Err&amp;gt;&lt;/div&gt;&lt;div&gt;+ reserve_file_space(path: &amp;amp;str, size: u64): Err&lt;/div&gt;&lt;div&gt;+ write_block(path: &amp;amp;str, block_num: u64, data: vec&amp;lt;u8&amp;gt;): Result&amp;lt;(), Err&amp;gt;&lt;/div&gt;&lt;div&gt;+ get_raw_lines(file_path: &amp;amp;str): Result&amp;lt;Vec&amp;lt;String&amp;gt;, Err&amp;gt;&lt;/div&gt;&lt;div&gt;&lt;br&gt;&lt;/div&gt;" style="text;strokeColor=none;fillColor=none;align=left;verticalAlign=top;spacingLeft=4;spacingRight=4;overflow=hidden;rotatable=0;points=[[0,0.5],[1,0.5]];portConstraint=eastwest;whiteSpace=wrap;html=1;" vertex="1" parent="18WQXgXfnGOnwOxeG2_K-1">
          <mxGeometry y="32" width="313" height="230" as="geometry" />
        </mxCell>
        <mxCell id="18WQXgXfnGOnwOxeG2_K-5" value="&lt;b&gt;ptui&lt;/b&gt;&lt;br&gt;&lt;div&gt;&amp;lt;&amp;lt;non-class&amp;gt;&amp;gt;&lt;/div&gt;" style="swimlane;fontStyle=0;childLayout=stackLayout;horizontal=1;startSize=32;fillColor=none;horizontalStack=0;resizeParent=1;resizeParentMax=0;resizeLast=0;collapsible=1;marginBottom=0;whiteSpace=wrap;html=1;" vertex="1" parent="1">
          <mxGeometry x="-509" y="194" width="313" height="132" as="geometry" />
        </mxCell>
        <mxCell id="18WQXgXfnGOnwOxeG2_K-6" value="&lt;div&gt;+ run(): None&lt;/div&gt;&lt;div&gt;+ main(): None&lt;/div&gt;&lt;div&gt;- process_input(line: &amp;amp;str): None&lt;/div&gt;&lt;div&gt;- file_cmd(line_parts: Split&amp;lt;&#39;_, &amp;amp;str&amp;gt;): None&lt;/div&gt;&lt;div&gt;- linker_cmd(&lt;span style=&quot;background-color: transparent; color: light-dark(rgb(0, 0, 0), rgb(255, 255, 255));&quot;&gt;line_parts: Split&amp;lt;&#39;_, &amp;amp;str&amp;gt;): None&lt;/span&gt;&lt;/div&gt;&lt;div&gt;&lt;br&gt;&lt;/div&gt;" style="text;strokeColor=none;fillColor=none;align=left;verticalAlign=top;spacingLeft=4;spacingRight=4;overflow=hidden;rotatable=0;points=[[0,0.5],[1,0.5]];portConstraint=eastwest;whiteSpace=wrap;html=1;" vertex="1" parent="18WQXgXfnGOnwOxeG2_K-5">
          <mxGeometry y="32" width="313" height="100" as="geometry" />
        </mxCell>
        <mxCell id="18WQXgXfnGOnwOxeG2_K-9" style="edgeStyle=orthogonalEdgeStyle;rounded=0;orthogonalLoop=1;jettySize=auto;html=1;entryX=0.5;entryY=0;entryDx=0;entryDy=0;dashed=1;endArrow=open;endFill=0;" edge="1" parent="1" source="18WQXgXfnGOnwOxeG2_K-7" target="18WQXgXfnGOnwOxeG2_K-1">
          <mxGeometry relative="1" as="geometry" />
        </mxCell>
        <mxCell id="18WQXgXfnGOnwOxeG2_K-7" value="&lt;b&gt;file_distributor&lt;/b&gt;&lt;br&gt;&lt;div&gt;&amp;lt;&amp;lt;non-class&amp;gt;&amp;gt;&lt;/div&gt;" style="swimlane;fontStyle=0;childLayout=stackLayout;horizontal=1;startSize=32;fillColor=none;horizontalStack=0;resizeParent=1;resizeParentMax=0;resizeLast=0;collapsible=1;marginBottom=0;whiteSpace=wrap;html=1;" vertex="1" parent="1">
          <mxGeometry x="353" y="-370" width="313" height="75" as="geometry" />
        </mxCell>
        <mxCell id="18WQXgXfnGOnwOxeG2_K-8" value="&lt;div&gt;+ start_server(): None&lt;/div&gt;&lt;div&gt;- handle_client(stream: TcpStream)&lt;/div&gt;" style="text;strokeColor=none;fillColor=none;align=left;verticalAlign=top;spacingLeft=4;spacingRight=4;overflow=hidden;rotatable=0;points=[[0,0.5],[1,0.5]];portConstraint=eastwest;whiteSpace=wrap;html=1;" vertex="1" parent="18WQXgXfnGOnwOxeG2_K-7">
          <mxGeometry y="32" width="313" height="43" as="geometry" />
        </mxCell>
        <mxCell id="18WQXgXfnGOnwOxeG2_K-14" style="edgeStyle=orthogonalEdgeStyle;rounded=0;orthogonalLoop=1;jettySize=auto;html=1;exitX=1;exitY=0.5;exitDx=0;exitDy=0;entryX=0;entryY=0.5;entryDx=0;entryDy=0;dashed=1;endArrow=open;endFill=0;" edge="1" parent="1" source="18WQXgXfnGOnwOxeG2_K-10" target="18WQXgXfnGOnwOxeG2_K-12">
          <mxGeometry relative="1" as="geometry" />
        </mxCell>
        <mxCell id="18WQXgXfnGOnwOxeG2_K-16" style="edgeStyle=orthogonalEdgeStyle;rounded=0;orthogonalLoop=1;jettySize=auto;html=1;dashed=1;endArrow=open;endFill=0;" edge="1" parent="1" source="18WQXgXfnGOnwOxeG2_K-10" target="18WQXgXfnGOnwOxeG2_K-15">
          <mxGeometry relative="1" as="geometry" />
        </mxCell>
        <mxCell id="18WQXgXfnGOnwOxeG2_K-10" value="&lt;p style=&quot;margin:0px;margin-top:4px;text-align:center;&quot;&gt;&lt;b&gt;Linker&lt;/b&gt;&lt;/p&gt;&lt;p style=&quot;margin:0px;margin-top:4px;text-align:center;&quot;&gt;&lt;i&gt;&amp;lt;&amp;lt;Singleton&amp;gt;&amp;gt;&lt;/i&gt;&lt;b&gt;&lt;/b&gt;&lt;/p&gt;&lt;hr size=&quot;1&quot; style=&quot;border-style:solid;&quot;&gt;&lt;p style=&quot;margin:0px;margin-left:4px;&quot;&gt;- &lt;u&gt;INSTANCE&lt;/u&gt;: OnceLock&amp;lt;RwLock&amp;lt;Linker&amp;gt;&amp;gt;&lt;/p&gt;&lt;p style=&quot;margin:0px;margin-left:4px;&quot;&gt;- target: String&lt;/p&gt;&lt;p style=&quot;margin:0px;margin-left:4px;&quot;&gt;- distributors: HashMap&amp;lt;String, Vec&amp;lt;String&amp;gt;&amp;gt;&lt;/p&gt;&lt;hr size=&quot;1&quot; style=&quot;border-style:solid;&quot;&gt;&lt;p style=&quot;margin:0px;margin-left:4px;&quot;&gt;- new(): Linker&lt;/p&gt;&lt;p style=&quot;margin:0px;margin-left:4px;&quot;&gt;+ instance(): &amp;amp;RwLock&amp;lt;Linker&amp;gt;&lt;/p&gt;&lt;p style=&quot;margin:0px;margin-left:4px;&quot;&gt;+ get_target(): String&lt;/p&gt;&lt;p style=&quot;margin:0px;margin-left:4px;&quot;&gt;+ set_target(new_target: String): None&lt;/p&gt;&lt;p style=&quot;margin:0px;margin-left:4px;&quot;&gt;+ update(): Option&amp;lt;Err&amp;gt;&lt;/p&gt;&lt;p style=&quot;margin:0px;margin-left:4px;&quot;&gt;+ debug(): None&lt;/p&gt;" style="verticalAlign=top;align=left;overflow=fill;html=1;whiteSpace=wrap;" vertex="1" parent="1">
          <mxGeometry x="-30" y="194" width="284" height="197" as="geometry" />
        </mxCell>
        <mxCell id="18WQXgXfnGOnwOxeG2_K-12" value="&lt;b&gt;linker_comm&lt;/b&gt;&lt;div&gt;&amp;lt;&amp;lt;non-class&amp;gt;&amp;gt;&lt;/div&gt;" style="swimlane;fontStyle=0;childLayout=stackLayout;horizontal=1;startSize=32;fillColor=none;horizontalStack=0;resizeParent=1;resizeParentMax=0;resizeLast=0;collapsible=1;marginBottom=0;whiteSpace=wrap;html=1;" vertex="1" parent="1">
          <mxGeometry x="353" y="210.5" width="313" height="164" as="geometry" />
        </mxCell>
        <mxCell id="18WQXgXfnGOnwOxeG2_K-13" value="&lt;div&gt;+ construct_request(distributing: &amp;amp;HashSet&amp;lt;String&amp;gt;, requesting: &amp;amp;HashSet&amp;lt;String&amp;gt;, source: String): Vec&amp;lt;String&amp;gt;&lt;/div&gt;&lt;div&gt;+ send_request(request: Vec&amp;lt;String&amp;gt;, linking_server: &amp;amp;str): Result&amp;lt;HashMap&amp;lt;String, Vec&amp;lt;String&amp;gt;, Err&amp;gt;&lt;/div&gt;&lt;div&gt;+ process_response(response: String): HashMap&amp;lt;String, Vec&amp;lt;String&amp;gt;&amp;gt;&lt;/div&gt;&lt;div&gt;- print_request(request: Vec&amp;lt;String&amp;gt;): None&lt;/div&gt;&lt;div&gt;&lt;br&gt;&lt;/div&gt;" style="text;strokeColor=none;fillColor=none;align=left;verticalAlign=top;spacingLeft=4;spacingRight=4;overflow=hidden;rotatable=0;points=[[0,0.5],[1,0.5]];portConstraint=eastwest;whiteSpace=wrap;html=1;" vertex="1" parent="18WQXgXfnGOnwOxeG2_K-12">
          <mxGeometry y="32" width="313" height="132" as="geometry" />
        </mxCell>
        <mxCell id="18WQXgXfnGOnwOxeG2_K-15" value="&lt;p style=&quot;margin:0px;margin-top:4px;text-align:center;&quot;&gt;&lt;b&gt;FileManager&lt;/b&gt;&lt;/p&gt;&lt;p style=&quot;margin:0px;margin-top:4px;text-align:center;&quot;&gt;&lt;i&gt;&amp;lt;&amp;lt;Singleton&amp;gt;&amp;gt;&lt;/i&gt;&lt;b&gt;&lt;/b&gt;&lt;/p&gt;&lt;hr size=&quot;1&quot; style=&quot;border-style:solid;&quot;&gt;&lt;p style=&quot;margin:0px;margin-left:4px;&quot;&gt;- &lt;u&gt;INSTANCE&lt;/u&gt;: OnceLock&amp;lt;RwLock&amp;lt;FileManager&amp;gt;&amp;gt;&lt;/p&gt;&lt;hr size=&quot;1&quot; style=&quot;border-style:solid;&quot;&gt;&lt;p style=&quot;margin:0px;margin-left:4px;&quot;&gt;- new(): FileManager&lt;/p&gt;&lt;p style=&quot;margin:0px;margin-left:4px;&quot;&gt;+ instance(): &amp;amp;RwLock&amp;lt;FileManager&amp;gt;&lt;/p&gt;&lt;p style=&quot;margin:0px;margin-left:4px;&quot;&gt;LEFT OFF&lt;/p&gt;&lt;p style=&quot;margin:0px;margin-left:4px;&quot;&gt;&lt;br&gt;&lt;/p&gt;" style="verticalAlign=top;align=left;overflow=fill;html=1;whiteSpace=wrap;" vertex="1" parent="1">
          <mxGeometry x="-30" y="-104" width="284" height="197" as="geometry" />
        </mxCell>
      </root>
    </mxGraphModel>
  </diagram>
</mxfile>
